# xmcd CD database file
#
# Track frame offsets:
#	150
#	15244
#	26735
#	46700
#	75058
#	112374
#	135500
#	144660
#	158082
#	173347
#	201155
#	228499
#
# Disc length: 3145 seconds
#
# Revision: 1
# Processed by: cddbd v1.5.2PL0 Copyright (c) Steve Scherf et al.
# Submitted via: CDex 1.70beta2
#
DISCID=890c470c
DTITLE=Taylor Haskins - American Dream
DYEAR=2009
DGENRE=Jazz
TTITLE0=Invocation: American Dream
TTITLE1=Theme From "Dead Man"
TTITLE2=Mustangs (Steve Mcqueen)
TTITLE3=Drifters
TTITLE4=Black Boxes
TTITLE5=No Regrets
TTITLE6=Pyramids
TTITLE7=Idlewild
TTITLE8=Everlong
TTITLE9=The Ballad Of Michael Jackson
TTITLE10=The Monetary System Blues
TTITLE11=Johnsburg, Illinois
EXTD=YEAR: 2009
EXTT0=
EXTT1=
EXTT2=
EXTT3=
EXTT4=
EXTT5=
EXTT6=
EXTT7=
EXTT8=
EXTT9=
EXTT10=
EXTT11=
PLAYORDER=
